<svg version="1.0" xmlns="http://www.w3.org/2000/svg" width="682.667" height="682.667" viewBox="0 0 512 512"><path d="M237.9.4c-.2.2-4 .6-8.3 1-4.4.4-8.2.9-8.5 1.1-.4.2-3.4.7-6.6 1-3.3.4-12.7 2.4-21 4.5C89.5 34.1 12.8 122.7 1.2 230c-.3 3.6-.6 15.7-.6 27 0 18.3.3 24.1 1.9 34.5.3 1.6.7 4.3.9 6 1.4 9.1 4 20.2 7.8 33 8.6 28.5 22.9 56.3 41.6 81 11.6 15.2 27.3 31.1 44.7 45.4 31.1 25.3 77.1 45.7 117 51.6 2.2.4 5.1.8 6.5 1.1 14.5 2.6 53.4 2.6 71-.1 76.2-11.8 140.4-53.7 181.4-118.5 8.7-13.8 23.1-44.5 26.2-55.9.2-.9 2.2-8.4 4.3-16.6 4.1-15.8 5-20.7 6.8-37 1-9 1-40.8.1-50.5-8.7-87.3-61.8-164.3-140.3-203.8-7-3.5-12.9-6.2-20-9.2-13.7-5.9-42.9-13.5-59-15.5-2.7-.4-6.1-.9-7.5-1.1-3-.6-45.5-1.5-46.1-1zM273 86.5c20.5 2.1 37.5 6.9 55.9 15.6 42.1 20 74.5 56.8 89 100.8 3 9.1 3.5 10.8 4.6 16.8.5 2.7 1 4.9 2 10.3 2.3 11.2 2.2 41.4 0 52-.3 1.4-.8 4.1-1.1 6-2.7 17.1-13.3 43.4-24.3 60.3-23.3 35.5-57.2 60.4-98.2 72.2-6.6 1.8-8 2.1-19.4 4-14.7 2.4-39.8 2.4-51.6-.1-1.3-.2-4-.7-5.9-1-22.7-3.6-52.6-17.2-73.3-33.5-30.3-23.9-53.7-61.1-61.1-97.1-2.4-11.9-2.6-12.9-3.3-21.8-1-13.3-.3-38.5 1.2-41 .2-.3.7-2.9 1.1-5.6.3-2.7.8-5.2 1-5.5.2-.3.6-2 .9-3.8 1.1-6.2 6.7-21.7 11.4-31.7 4.2-8.8 13.6-24.8 16.6-28 .5-.7 1.9-2.4 2.9-3.8 6.8-9.4 20.6-23 32.1-31.5 26.8-20 56.4-31.3 88-33.7 4.4-.4 8.1-.7 8.3-.9.4-.3 17.1.3 23.2 1z"/><path d="M249.2 114.1c-7.9 3.9-17.2 16.6-24 32.5-5.6 13.2-14.3 44.7-12.7 46.2.3.4 20.2.7 44.1.8 36.6 0 43.4-.2 43.4-1.4 0-2.9-6.1-26.4-9-34.6-8.3-23.5-19.3-39.9-29.6-44.2-4.6-1.9-7.2-1.8-12.2.7zm-44.2 7.1c-29.2 12.8-47.3 26.4-63.7 47.9-4.8 6.2-14.3 21.8-14.3 23.5 0 .7 9.3 1 28.9 1h28.9l1.3-6.5c.6-3.6 1.3-7.3 1.4-8.1 2.3-12.5 10.2-36.4 16.3-49.1 2.6-5.4 4.5-9.9 4.2-9.8-.3 0-1.6.5-3 1.1zm102.1 6.5c7.3 14.6 14.8 37.5 18 54.6.6 3.4 1.3 6.9 1.4 7.7.2.8.4 2 .4 2.6.1 1.2 58.1 1.5 58.1.3 0-1.6-6.5-12.7-11.9-20.3-15.2-21.4-36.2-38.4-60.4-48.8-4.8-2.1-8.9-3.8-9.1-3.8-.2 0 1.4 3.5 3.5 7.7zm-190.5 93.1c-.7 1.3-1.8 6.8-3.1 15.2-1.8 11.3-1.2 37.1 1 46.5.9 3.8 1.7 7.5 1.8 8.2 0 .9 8.3 1.1 32.6 1 28.4-.2 32.5-.4 32.2-1.7-.7-2.7-.9-55.4-.2-61.8.4-3.4.4-6.6.1-7.1-.6-1-63.8-1.3-64.4-.3zm91.3 1.6c0 1.1-.3 3-.5 4.1-1.4 6.3-.5 61.9 1.1 64.5.7 1.1 94.4 1 95-.1 1.3-2 1.8-12.8 1.7-36.9 0-14-.3-26.4-.6-27.5-.2-1.1-.5-3-.5-4.2l-.1-2.1h-96l-.1 2.2zm122.8-1.1c-.2.6 0 3.1.4 5.6.7 4.7.6 60.4-.2 63.1-.3 1.3 3.7 1.5 32.1 1.5h32.5l1.2-5.5c2.3-10.2 2.4-11.5 2.8-26 .3-14.7-.6-25.5-2.9-34.5l-1.2-5-32.2-.2c-22.6-.1-32.2.2-32.5 1zM127 319.4c0 1.7 9.5 17.3 14.3 23.5 15.1 19.7 35.3 35.4 57.8 45.2 4.9 2.1 9.1 3.9 9.2 3.9.2 0-1.7-4-4-8.8-2.3-4.9-5.6-12.7-7.3-17.3-3.2-8.6-9.4-31.2-10.5-38.4-.4-2.2-.8-4.7-1-5.5-.2-.8-.4-2-.4-2.6-.1-1.5-58.1-1.5-58.1 0zm85.4-.3c-.2.4.5 5 1.7 10.1 1.1 5.1 2.2 9.7 2.3 10.3.1.5 1.5 5 3 9.8 8.2 26.4 21.3 46.4 32.7 49.9 13.1 3.9 28.4-14 39.3-46.2 3-8.9 8.6-30.8 8.6-33.8 0-1-86.9-1.2-87.6-.1zM325 329.2c-4.2 21.4-11.8 44.4-19 57.4-1.6 3-2.8 5.4-2.6 5.4.2 0 3.5-1.3 7.4-2.9 18-7.4 36.1-19.8 49.2-33.7 5.3-5.6 14.3-16.8 16.5-20.6 5.7-9.7 8.5-14.8 8.5-15.5 0-.5-12.3-.9-28.9-.9l-28.9-.1-2.2 10.9z"/></svg>