<?xml version="1.0" standalone="no"?>
<!DOCTYPE svg PUBLIC "-//W3C//DTD SVG 20010904//EN"
 "http://www.w3.org/TR/2001/REC-SVG-20010904/DTD/svg10.dtd">
<svg version="1.0" xmlns="http://www.w3.org/2000/svg"
 width="512.000000pt" height="512.000000pt" viewBox="0 0 512.000000 512.000000"
 preserveAspectRatio="xMidYMid meet">
<metadata>
Created by potrace 1.14, written by Peter Selinger 2001-2017
</metadata>
<g transform="translate(0.000000,512.000000) scale(0.100000,-0.100000)"
fill="#000000" stroke="none">
<path d="M2379 5116 c-2 -2 -40 -6 -83 -10 -44 -4 -82 -9 -85 -11 -4 -2 -34
-7 -66 -10 -33 -4 -127 -24 -210 -45 -1040 -261 -1807 -1147 -1923 -2220 -3
-36 -6 -157 -6 -270 0 -183 3 -241 19 -345 3 -16 7 -43 9 -60 14 -91 40 -202
78 -330 86 -285 229 -563 416 -810 116 -152 273 -311 447 -454 311 -253 771
-457 1170 -516 22 -4 51 -8 65 -11 145 -26 534 -26 710 1 762 118 1404 537
1814 1185 87 138 231 445 262 559 2 9 22 84 43 166 41 158 50 207 68 370 10
90 10 408 1 505 -87 873 -618 1643 -1403 2038 -70 35 -129 62 -200 92 -137 59
-429 135 -590 155 -27 4 -61 9 -75 11 -30 6 -455 15 -461 10z m351 -861 c205
-21 375 -69 559 -156 421 -200 745 -568 890 -1008 30 -91 35 -108 46 -168 5
-27 10 -49 20 -103 23 -112 22 -414 0 -520 -3 -14 -8 -41 -11 -60 -27 -171
-133 -434 -243 -603 -233 -355 -572 -604 -982 -722 -66 -18 -80 -21 -194 -40
-147 -24 -398 -24 -516 1 -13 2 -40 7 -59 10 -227 36 -526 172 -733 335 -303
239 -537 611 -611 971 -24 119 -26 129 -33 218 -10 133 -3 385 12 410 2 3 7
29 11 56 3 27 8 52 10 55 2 3 6 20 9 38 11 62 67 217 114 317 42 88 136 248
166 280 5 7 19 24 29 38 68 94 206 230 321 315 268 200 564 313 880 337 44 4
81 7 83 9 4 3 171 -3 232 -10z"/>
<path d="M2492 3979 c-79 -39 -172 -166 -240 -325 -56 -132 -143 -447 -127
-462 3 -4 202 -7 441 -8 366 0 434 2 434 14 0 29 -61 264 -90 346 -83 235
-193 399 -296 442 -46 19 -72 18 -122 -7z"/>
<path d="M2050 3908 c-292 -128 -473 -264 -637 -479 -48 -62 -143 -218 -143
-235 0 -7 93 -10 289 -10 l289 0 13 65 c6 36 13 73 14 81 23 125 102 364 163
491 26 54 45 99 42 98 -3 0 -16 -5 -30 -11z"/>
<path d="M3071 3843 c73 -146 148 -375 180 -546 6 -34 13 -69 14 -77 2 -8 4
-20 4 -26 1 -12 581 -15 581 -3 0 16 -65 127 -119 203 -152 214 -362 384 -604
488 -48 21 -89 38 -91 38 -2 0 14 -35 35 -77z"/>
<path d="M1166 2912 c-7 -13 -18 -68 -31 -152 -18 -113 -12 -371 10 -465 9
-38 17 -75 18 -82 0 -9 83 -11 326 -10 284 2 325 4 322 17 -7 27 -9 554 -2
618 4 34 4 66 1 71 -6 10 -638 13 -644 3z"/>
<path d="M2079 2896 c0 -11 -3 -30 -5 -41 -14 -63 -5 -619 11 -645 7 -11 944
-10 950 1 13 20 18 128 17 369 0 140 -3 264 -6 275 -2 11 -5 30 -5 42 l-1 21
-480 0 -480 0 -1 -22z"/>
<path d="M3307 2907 c-2 -6 0 -31 4 -56 7 -47 6 -604 -2 -631 -3 -13 37 -15
321 -15 l325 0 12 55 c23 102 24 115 28 260 3 147 -6 255 -29 345 l-12 50
-322 2 c-226 1 -322 -2 -325 -10z"/>
<path d="M1270 1926 c0 -17 95 -173 143 -235 151 -197 353 -354 578 -452 49
-21 91 -39 92 -39 2 0 -17 40 -40 88 -23 49 -56 127 -73 173 -32 86 -94 312
-105 384 -4 22 -8 47 -10 55 -2 8 -4 20 -4 26 -1 15 -581 15 -581 0z"/>
<path d="M2124 1929 c-2 -4 5 -50 17 -101 11 -51 22 -97 23 -103 1 -5 15 -50
30 -98 82 -264 213 -464 327 -499 131 -39 284 140 393 462 30 89 86 308 86
338 0 10 -869 12 -876 1z"/>
<path d="M3250 1828 c-42 -214 -118 -444 -190 -574 -16 -30 -28 -54 -26 -54 2
0 35 13 74 29 180 74 361 198 492 337 53 56 143 168 165 206 57 97 85 148 85
155 0 5 -123 9 -289 9 l-289 1 -22 -109z"/>
</g>
</svg>
